<?xml version="1.0" encoding="utf-8"?>
<!-- Generator: Adobe Illustrator 24.1.2, SVG Export Plug-In . SVG Version: 6.00 Build 0)  -->
<svg version="1.1" id="Layer_1" xmlns="http://www.w3.org/2000/svg" xmlns:xlink="http://www.w3.org/1999/xlink" x="0px" y="0px"
	 viewBox="0 0 512 512" style="enable-background:new 0 0 512 512;" xml:space="preserve">
<style type="text/css">
	.st0{fill:#324B66;}
	.st1{fill:#3D5671;}
	.st2{fill:#677B92;}
	.st3{fill:#475E78;}
	.st4{fill:#748597;}
	.st5{fill:#516783;}
	.st6{fill:#28425C;}
</style>
<g id="Flat">
	<g>
		<path class="st0" d="M112.9,194.2H0v-17.7h109.7l58.4-50.8l11.3,13.4l-60.8,53C117,193.5,115,194.2,112.9,194.2L112.9,194.2z"/>
		<path class="st0" d="M130.3,229.5H0v-17.7h127.2l93.1-77.5l11,13.7l-95.5,79.4C134.2,228.8,132.3,229.5,130.3,229.5z"/>
		<path class="st0" d="M147.6,264.8H0v-17.7h144.6l127.9-104l10.9,13.8L153.1,262.9C151.5,264.1,149.6,264.8,147.6,264.8z"/>
		<path class="st0" d="M269.2,264.8h-69.5v-17.7h65.9l84.3-85.7l12.3,12.5l-86.8,88.3C273.7,263.9,271.5,264.8,269.2,264.8
			L269.2,264.8z"/>
		<path class="st0" d="M286.6,300.1h-86.8v-17.7H283l75.6-76.9l12.3,12.5l-78.2,79.4C291.1,299.2,288.9,300.1,286.6,300.1
			L286.6,300.1z"/>
		<path class="st0" d="M312.7,335.4H199.8v-17.7h109.3l58.3-59.2l12.3,12.5l-60.8,61.8C317.2,334.5,315,335.4,312.7,335.4
			L312.7,335.4z"/>
		<path class="st0" d="M199.8,353.1h165v17.7h-165V353.1z"/>
		<path class="st0" d="M30.4,105.9h91.2l0,0v44.1l0,0H30.4c-12,0-21.7-9.9-21.7-22.1S18.4,105.9,30.4,105.9z"/>
	</g>
	<path class="st1" d="M277.9,185.4h-98.5c-31.1,0-60.7-14.2-80.5-38.6L8.7,35.3V0h269.2V185.4z"/>
	<path class="st2" d="M512.4,151.9v121.7H330v-61.8c0-3.9-0.9-7.8-2.5-11.4l0,0c-2.6-5.5-6.9-9.9-12.3-12.5l0,0
		c-3.5-1.7-7.3-2.6-11.2-2.6h-26.1V0h85c36.6,0,72,13.7,99.4,38.4c9.5,8.6,17.9,18.4,25,29.2C503.7,92.6,512.4,121.9,512.4,151.9z"
		/>
	<path class="st0" d="M217.1,512H58.5C31,512,8.7,489.3,8.7,461.4v-93c0-27.9,22.3-50.6,49.8-50.6c12.6,0,24.8,4.9,34.1,13.7
		l124.6,118.7V512z"/>
	<path class="st1" d="M217.1,512H58.5C31,512,8.7,489.3,8.7,461.4v-40c0-27.9,22.3-50.6,49.8-50.6h6.6c8.6,0,17,2.2,24.4,6.5
		l127.6,72.9V512z"/>
	<path class="st2" d="M512.4,273.7v34.1c0,23.4-9.1,45.9-25.4,62.4l-73.6,74.8l-12.4,12.6l-28.2,28.7
		c-16.3,16.6-38.4,25.9-61.4,25.9h-94.3v-61.8l106.3-91.4l6.6-5.7v-79.4L512.4,273.7z"/>
	<path class="st3" d="M173.7,26.5h69.5v17.7h-69.5V26.5z"/>
	<g>
		<path class="st4" d="M486.4,238.3H469v-86.4c0-19.1-5-37.8-14.4-54.3l15-8.9c11,19.2,16.8,41,16.8,63.2V238.3z"/>
		<path class="st4" d="M420.8,61.6c-17.2-11.4-37.3-17.5-57.9-17.4H330V26.5h32.9c23.9,0,47.3,7,67.4,20.3L420.8,61.6z"/>
		<path class="st4" d="M304,485.5v-17.7c16.3,0,31.9-6.5,43.4-18.3l11.2-11.4l12.3,12.5l-11.2,11.4
			C344.9,477.1,324.9,485.6,304,485.5L304,485.5z"/>
		<path class="st4" d="M414.3,406.5L402.1,394l54.2-55.1c7.9-8,12.5-18.8,12.7-30.2l17.4,0.4c-0.3,15.9-6.7,31-17.8,42.2
			L414.3,406.5z"/>
	</g>
	<path class="st5" d="M413.4,444.9l-12.4,12.6l-77.7-98.7l6.6-5.7V339L413.4,444.9z"/>
	<path class="st5" d="M474.6,50.9L327.5,200.5l0,0c-2.6-5.5-6.9-9.9-12.3-12.5l0,0L462.3,38.4C466.6,42.3,470.8,46.5,474.6,50.9
		L474.6,50.9z"/>
	<path class="st5" d="M330,264.8h182.4v17.7H330V264.8z"/>
	<path class="st5" d="M217.1,450.2L147.6,512h69.5V450.2z"/>
	<ellipse class="st6" cx="121.6" cy="26.5" rx="26.1" ry="26.5"/>
</g>
</svg>
