<?xml version="1.0" encoding="utf-8"?>
<!-- Generator: Adobe Illustrator 24.1.2, SVG Export Plug-In . SVG Version: 6.00 Build 0)  -->
<svg version="1.1" id="Layer_1" xmlns="http://www.w3.org/2000/svg" xmlns:xlink="http://www.w3.org/1999/xlink" x="0px" y="0px"
	 viewBox="0 0 512 512" style="enable-background:new 0 0 512 512;" xml:space="preserve">
<style type="text/css">
	.st0{fill:#EB604B;}
	.st1{fill:#F5BB60;}
	.st2{fill:#3D5671;}
	.st3{fill:#F36F5B;}
	.st4{fill:#E3573D;}
</style>
<g id="Flat">
	<path class="st0" d="M501.6,280.1c-6.9-13.4-16.8-24.9-29.1-33.6l-10.6-7.6c-12.5-8.9-15.4-26.3-6.5-38.8c3.7-5.1,8.9-8.9,15-10.6
		l16.1-4.6c15.1-4.3,25.5-18.1,25.5-33.8h-44.8c-10.3,0-20.5,2.3-29.9,6.7c2.7-7.8,4.1-16.1,4.1-24.3v-21.3
		C441.4,50.8,391.6,1,330.2,1h-33.7c-61.4,0-111.1,49.8-111.2,111.2v100.7c-19.5,0-35.3,15.8-35.3,35.3c0,0,0,0,0,0v75
		c0,22.1-14.9,41.4-36.3,47c-5-24.8-26.7-42.6-51.9-42.6h-8.6c-0.1-1.5-0.2-2.9-0.2-4.4c0-13.8,6.7-26.8,18-34.9l14.6-10.4
		c31.4-22.4,38.7-66.1,16.3-97.6c-13.1-18.4-34.3-29.3-56.9-29.3H0c0,15.7,10.4,29.5,25.5,33.8l16.1,4.6
		c14.8,4.2,23.3,19.6,19.1,34.4c-1.7,6.1-5.5,11.4-10.6,15l-10.6,7.6C14.7,264.2,0,292.8,0,323.2c0,1.5,0,2.9,0.1,4.4H0
		c0,2,0.2,4.1,0.5,6.1c0,0,0,0.1,0,0.1c3.9,36.6,27.2,68.3,61.1,82.8c0.1,0,0.1,0.1,0.2,0.1c0.7,53.6,44.8,96.5,98.4,95.8
		c52.9-0.7,95.4-43.6,95.8-96.5c0.3,53.6,44.1,96.8,97.7,96.5c52.9-0.3,95.8-42.9,96.5-95.8c0.1,0,0.1-0.1,0.2-0.1
		c33.9-14.5,57.2-46.1,61.1-82.8c0,0,0-0.1,0-0.1c0.3-2,0.5-4,0.5-6.1h-0.1c0.1-1.5,0.1-2.9,0.1-4.4
		C512,308.2,508.4,293.4,501.6,280.1L501.6,280.1z M203,415.9c0,24.4-19.8,44.1-44.1,44.1c-21.3,0-39.6-15.3-43.4-36.3
		c50.2-7,87.6-49.9,87.6-100.6V415.9z M353.1,460.1c-24.4,0-44.1-19.8-44.1-44.1v-92.7c0,50.7,37.4,93.6,87.6,100.6
		C392.7,444.8,374.4,460.1,353.1,460.1z M398.3,370.2c-21.4-5.6-36.3-24.9-36.3-47v-57.4c0-27.2,14.7-52.2,38.4-65.5
		c-8.9,28.8,1.7,60,26.2,77.6l14.6,10.4c11.3,8,18,21,18,34.9c0,1.5-0.1,3-0.2,4.4h-8.6C425,327.7,403.2,345.5,398.3,370.2
		L398.3,370.2z"/>
	<circle class="st1" cx="194.2" cy="195.2" r="26.5"/>
	<circle class="st2" cx="194.2" cy="195.2" r="13.2"/>
	<path class="st3" d="M229.5,112.2h-17.7C212,82.5,227.6,55,253,39.6l9.1,15.1C242,66.9,229.6,88.7,229.5,112.2z"/>
	<path class="st3" d="M275.4,48.6l-5.6-16.7c8.6-2.9,17.7-4.3,26.8-4.3v17.7C289.3,45.2,282.2,46.3,275.4,48.6z"/>
	<circle class="st1" cx="309" cy="195.2" r="26.5"/>
	<circle class="st2" cx="309" cy="195.2" r="13.2"/>
	<g>
		<path class="st4" d="M194.2,265.9h17.7v70.6h-17.7V265.9z"/>
		<path class="st4" d="M300.1,265.9h17.7v70.6h-17.7V265.9z"/>
		<path class="st4" d="M247.2,265.9h17.7v158.9h-17.7V265.9z"/>
		<path class="st4" d="M53.2,327.6c-0.1-1.5-0.2-2.9-0.2-4.4c0-4.5,0.7-9,2.1-13.2H0.9c-0.6,4.4-0.9,8.8-0.9,13.2
			c0,1.5,0,2.9,0.1,4.4H53.2z"/>
		<path class="st4" d="M114.8,380.6v35.3c0,2.6,0.2,5.3,0.7,7.9c5.9-0.8,11.6-2.1,17.2-3.9c-0.2-1.3-0.3-2.6-0.3-3.9v-35.3
			c0-6.1-0.8-12.2-2.4-18.1c-4.9,3.6-10.4,6.2-16.3,7.7C114.4,373.6,114.8,377.1,114.8,380.6z"/>
		<path class="st4" d="M61.8,416.7c-0.1,0-0.1,0-0.2-0.1c-33.9-14.5-57.2-46.1-61.1-82.8c0,0,0-0.1,0-0.1c2.3,13.2,12,24,24.9,27.7
			l23.5,6.7c7.6,2.2,12.8,9.1,12.8,17v30.8C61.8,416.2,61.8,416.4,61.8,416.7L61.8,416.7z"/>
		<path class="st4" d="M458.8,327.6c0.1-1.5,0.2-2.9,0.2-4.4c0-4.5-0.7-9-2.1-13.2h54.1c0.6,4.4,0.9,8.8,0.9,13.2
			c0,1.5,0,2.9-0.1,4.4H458.8z"/>
		<path class="st4" d="M397.2,380.6v35.3c0,2.6-0.2,5.3-0.7,7.9c-5.9-0.8-11.6-2.1-17.2-3.9c0.2-1.3,0.3-2.6,0.3-3.9v-35.3
			c0-6.1,0.8-12.2,2.4-18.1c4.9,3.6,10.4,6.2,16.3,7.7C397.6,373.6,397.2,377.1,397.2,380.6z"/>
		<path class="st4" d="M511.5,333.7c0,0,0,0.1,0,0.1c-3.9,36.6-27.2,68.3-61.1,82.8c-0.1,0-0.1,0-0.2,0.1c0-0.2,0-0.5,0-0.7v-30.8
			c0-7.9,5.2-14.8,12.8-17l23.5-6.7C499.5,357.7,509.1,347,511.5,333.7L511.5,333.7z"/>
		<path class="st4" d="M408.7,203.2c5.4-17.8,18.6-32.1,35.9-39l-6.5-16.4c-22.4,8.9-39.6,27.6-46.4,50.7L408.7,203.2z"/>
	</g>
</g>
</svg>
