<?xml version="1.0" encoding="utf-8"?>
<!-- Generator: Adobe Illustrator 24.1.2, SVG Export Plug-In . SVG Version: 6.00 Build 0)  -->
<svg version="1.1" id="Layer_1" xmlns="http://www.w3.org/2000/svg" xmlns:xlink="http://www.w3.org/1999/xlink" x="0px" y="0px"
	 viewBox="0 0 512 512" style="enable-background:new 0 0 512 512;" xml:space="preserve">
<style type="text/css">
	.st0{fill:#DB5139;}
	.st1{fill:#EB604B;}
	.st2{fill:#E2533B;}
</style>
<g id="Flat">
	<path class="st0" d="M88.3,353.1h335.4l0,0V459c0,29.3-23.7,53-53,53l0,0H141.2c-29.3,0-53-23.7-53-53l0,0V353.1L88.3,353.1z"/>
	<path class="st1" d="M512,191.6c0,41.8-13.7,82.5-38.9,115.8L355.1,462.8c-1.7,2.2-3.5,4.4-5.3,6.5
		c-45.1,51.8-123.8,57.2-175.6,12.1c-4.3-3.7-8.3-7.8-12.1-12.1c-1.8-2.1-3.6-4.3-5.3-6.5L38.9,307.3
		c-57.8-76.3-50.5-183.5,17.2-251.2l0,0C74.2,38,95.8,23.7,119.5,14c5.5-2.2,11-4.2,16.7-5.9c18-5.4,36.6-8.1,55.3-8.1h128.9
		c18.4,0,36.7,2.6,54.3,7.8c5.7,1.7,11.3,3.6,16.8,5.8c23.7,9.5,45.3,23.6,63.5,41.6c4.6,4.6,9,9.3,13.1,14.4
		c19.1,23.1,32.5,50.3,39.1,79.5v0C510.4,163.1,512,177.3,512,191.6L512,191.6z"/>
	<g>
		<path class="st2" d="M254.9,432.5l-17.6,1.4L203.8,0h17.7L254.9,432.5z"/>
		<path class="st2" d="M308.1,0l-35.1,435.5l-17.6-1.4L290.4,0L308.1,0z"/>
		<path class="st2" d="M236.4,431.1l-17.2,4.1L119.5,14c5.5-2.2,11-4.2,16.7-5.9L236.4,431.1z"/>
		<path class="st2" d="M200.9,447.7l6.4,10.8l-15.2,9L4.3,150.8c1.7-7.9,4-15.7,6.7-23.4l185.8,313.3L78.6,153.4l16.3-6.7
			l121.2,294.7L200.9,447.7z"/>
		<path class="st2" d="M87.6,128.9l-16.2,7L43.1,70.5c4.1-5,8.4-9.8,13-14.4l0,0L87.6,128.9z"/>
		<path class="st2" d="M391.6,13.6L291.1,445.1l-17.2-4L374.8,7.8C380.5,9.5,386.1,11.4,391.6,13.6L391.6,13.6z"/>
		<path class="st2" d="M507.3,149.1L507.3,149.1l-194,328.3l-15.2-9l8.3-14l-15.4-6.4L455,55.2c4.6,4.6,9,9.3,13.1,14.4l-158.4,379
			L500.5,126C503.2,133.5,505.5,141.3,507.3,149.1L507.3,149.1z"/>
		<path class="st2" d="M349.8,469.3c-45.1,51.8-123.8,57.2-175.6,12.1c-4.3-3.7-8.3-7.8-12.1-12.1c13.8-51.8,67.1-82.6,118.9-68.8
			C314.6,409.5,340.9,435.7,349.8,469.3z"/>
	</g>
</g>
</svg>
