<?xml version="1.0" encoding="utf-8"?>
<!-- Generator: Adobe Illustrator 24.1.2, SVG Export Plug-In . SVG Version: 6.00 Build 0)  -->
<svg version="1.1" id="Layer_1" xmlns="http://www.w3.org/2000/svg" xmlns:xlink="http://www.w3.org/1999/xlink" x="0px" y="0px"
	 viewBox="0 0 512 512" style="enable-background:new 0 0 512 512;" xml:space="preserve">
<style type="text/css">
	.st0{fill:#3D5671;}
	.st1{fill:#28425C;}
	.st2{fill:#677B92;}
	.st3{fill:#516783;}
</style>
<g id="Flat">
	<path class="st0" d="M256.3,441.4c-43.5-23.3-70.7-68.7-70.8-118.1l-0.1-42.8l35.4,31.9l17.7,15.9l17.7,15.9L256.3,441.4z"/>
	<path class="st0" d="M150.3,381.3c-9-6.2-17.9-12.7-26.5-19.4c-6-4.7-11.9-9.5-17.7-14.4l-0.9-0.7c-5.7-4.9-11.3-9.9-16.8-15.1
		c-6-5.6-11.9-11.4-17.7-17.4c-2.2-2.3-4.4-4.6-6.6-6.9c-34.3-36.6-32.5-94.1,4.1-128.4c0.7-0.7,1.5-1.3,2.2-2l79.6,71.7
		L150.3,381.3z"/>
	<path class="st0" d="M441.4,255.7l-97.1,0.2L176.2,70.8c33-37.8,90.4-41.8,128.2-8.8c0.7,0.6,1.5,1.3,2.2,2
		c2.3,2.2,4.6,4.4,6.9,6.6c6,5.7,11.8,11.6,17.4,17.6c5.4,5.7,10.7,11.6,15.9,17.6c5,5.8,9.8,11.6,14.5,17.6
		c1.2,1.5,2.3,2.9,3.4,4.4c3.4,4.4,6.7,8.8,9.9,13.2c4.2,5.8,8.2,11.7,12.2,17.6c3.8,5.8,7.5,11.7,11.2,17.6
		c3.5,5.8,6.9,11.7,10.2,17.6c1.2,2.1,2.3,4.3,3.5,6.4l6,11.2l9.4,17.6L441.4,255.7z"/>
	<g>
		<path class="st1" d="M238.6,388.4l-17.7,0l-0.1-76.1l17.7,15.9L238.6,388.4z"/>
		<path class="st1" d="M88.4,331.6c-6-5.6-11.9-11.4-17.7-17.4l-0.1-49l17.7,0L88.4,331.6z"/>
		<path class="st1" d="M123.8,361.8c-6-4.7-11.9-9.5-17.7-14.4l-0.1-38.1l17.7,0L123.8,361.8z"/>
		<path class="st1" d="M331,88.1l-66.4,0.1l0-17.7l49-0.1C319.5,76.3,325.3,82.1,331,88.1L331,88.1z"/>
		<path class="st1" d="M361.4,123.4l-52.7,0.1l0-17.7l38.2-0.1C351.8,111.5,356.7,117.4,361.4,123.4z"/>
		<path class="st1" d="M386.9,158.7l-51.6,0.1l0-17.7l39.4-0.1C378.9,146.8,382.9,152.7,386.9,158.7z"/>
		<path class="st1" d="M408.2,193.9l-46.4,0.1l0-17.7l36.2-0.1C401.5,182.1,405,188,408.2,193.9z"/>
		<path class="st1" d="M427.2,229.2l-47.7,0.1l0-17.7l38.3-0.1L427.2,229.2z"/>
	</g>
	<path class="st2" d="M371.2,511.8l-0.1-67.1c0-23.1-15.1-43.5-37.1-50.4l-46.3-14.5c-55.5-17.4-106-48-147.3-89l-34.3-34.2
		C72.4,222.9,45.6,183,27.4,139.1c-0.2-0.5-0.4-0.9-0.6-1.3c-3.1-7.5-5.9-15.1-8.5-22.8C5.9,78-0.4,39.4-0.5,0.5
		c5.7,0,11.4,0.1,17,0.4l0,0c6.3,0.3,12.5,0.7,18.7,1.3c83.3,8.1,161.3,44.8,220.6,103.9l34.3,34.2c41.2,41.1,72,91.5,89.6,146.9
		l14.7,46.2c7,22,27.5,37,50.6,36.9l67.1-0.1c0,12.2-1.5,24.3-4.6,36.1c-1.5,5.7-3.4,11.3-5.6,16.8c-5.9,14.6-14.1,28-24.4,39.9
		c-2.1,2.5-4.3,4.8-6.6,7.1c-5.7,5.8-12,11-18.6,15.7c-16,11.4-34.3,19.3-53.6,23.1C389.8,510.8,380.5,511.8,371.2,511.8
		L371.2,511.8z"/>
	<g>
		<path class="st0" d="M415.7,401.4c-2.1,2.5-4.3,4.8-6.6,7.1c-5.7,5.8-12,11-18.6,15.7c-4.8,3.4-9.8,6.5-15,9.3
			c-1.7,0.9-3.4,1.8-5.1,2.6c0.5,2.8,0.7,5.7,0.7,8.6l0.1,67.1c9.3,0,18.5-0.9,27.6-2.8c19.3-3.9,37.5-11.7,53.6-23.1
			c6.6-4.7,12.9-9.9,18.6-15.7c2.3-2.3,4.5-4.7,6.6-7.1c10.3-11.8,18.6-25.3,24.4-39.9c2.2-5.5,4.1-11.1,5.6-16.8
			c3.1-11.8,4.6-23.9,4.6-36.1l-67.1,0.1c-2.9,0-5.7-0.2-8.6-0.7C431.1,381.2,424.1,391.8,415.7,401.4L415.7,401.4z"/>
		<path class="st0" d="M44.2,99.9l-27.6-99c6.3,0.3,12.5,0.7,18.7,1.3l25.9,92.9L44.2,99.9z"/>
		<path class="st0" d="M75.8,158.5l-49-20.8c-3.1-7.5-5.9-15.1-8.5-22.8l59.8,25.4l54-38.7L132,62l17.7,0l0.1,44.1
			c0,2.9-1.4,5.5-3.7,7.2l-61.7,44.3C81.9,159.4,78.6,159.7,75.8,158.5L75.8,158.5z"/>
		<circle class="st0" cx="83.5" cy="66.5" r="22.1"/>
		<path class="st0" d="M211.8,238.4l-70.8-70.5l-26.4,17.7l14.6,23.2C146.6,236.6,180.8,248.8,211.8,238.4z"/>
	</g>
	<path class="st3" d="M332.4,361.3c0.2-0.2,0.4-0.4,0.7-0.6c6.4-6.3,9.9-14.9,9.9-23.9c0-0.5,0-1.1,0-1.6c5.2,0.3,10.5-0.7,15.3-2.9
		l-7.2-16.1c-6.1,2.7-13.2,1.4-18-3.3l-4-4c3.3-5.3,5-11.5,5-17.8c0-0.5,0-1,0-1.6c2.6,0.1,5.2-0.1,7.7-0.5l-3.3-17.4
		c-5.2,1-10.6-0.7-14.4-4.4l-3.4-3.4c6-10.5,5.9-23.3-0.1-33.7l1-3.1c-2.4-0.8-4.6-2.1-6.4-3.9l-3.4-3.4c0.5-0.9,1-1.8,1.4-2.7
		l-16.1-7.3c-0.8,1.7-1.9,3.3-3.2,4.6c-6.3,6.3-16.5,6.3-22.8,0l-3.4-3.4c2.9-5.1,4.5-10.9,4.4-16.8c0-0.5,0-1,0-1.5
		c4.1,0.2,8.3-0.4,12.2-1.7l-5.6-16.7c-5.8,2-12.2,0.4-16.5-3.9l-3.4-3.4c2-3.5,3.4-7.4,4-11.5l-17.4-2.7c-0.5,3.4-2.1,6.4-4.5,8.8
		c-6.3,6.3-16.5,6.3-22.8,0l-3.4-3.4c2.9-5.1,4.5-10.9,4.4-16.8c0-0.5,0-1.1,0-1.6c4.6,0.2,9.1-0.5,13.4-2.1l-6.2-16.5
		c-5.9,2.2-12.6,0.8-17.1-3.7l-8.4-8.4c1.1-2.9,1.8-6,2-9.1L185,98.6c-0.7,8.7-8.3,15.3-17,14.8l-1,17.6c8.4,0.5,16.7-2.2,23.2-7.4
		l6.4,6.4c6.3,6.3,6.3,16.5,0,22.8c-4.5,4.5-11.2,5.9-17.1,3.7l-6.2,16.5c9.5,3.5,20,2.7,28.7-2.4l3.4,3.4
		c6.3,6.3,6.3,16.5,0.1,22.8c0,0,0,0,0,0l12.5,12.5c6.3-6.3,9.9-15,9.9-23.9c0-0.5,0-1,0-1.6c6.4,0.3,12.8-1.3,18.4-4.5l3.4,3.4
		c6.3,6.3,6.3,16.5,0,22.8c-4.5,4.5-11.2,5.9-17.1,3.7l-6.2,16.5c9.5,3.5,20,2.7,28.7-2.4l3.4,3.4c6.3,6.3,6.3,16.5,0,22.8
		c-6.3,6.3-16.5,6.3-22.8,0l0,0l-12.5,12.5c6.3,6.3,6.3,16.5,0,22.8c-3,3-7.1,4.7-11.4,4.7l0,17.7c5.9,0,11.7-1.6,16.8-4.5l3.4,3.4
		c4,4,5.7,9.8,4.3,15.4l17.1,4.3c0.7-2.7,1-5.5,1-8.3c0-0.5,0-1,0-1.6c6.4,0.3,12.8-1.3,18.4-4.5l3.4,3.4c4.5,4.5,6,11.2,3.7,17.1
		l16.5,6.2c1.4-3.8,2.2-7.9,2.2-12c0-0.5,0-1,0-1.6c6,0.3,12.1-1.1,17.4-3.9l4.4,4.4c6.3,6.3,6.3,16.5,0.1,22.8c0,0,0,0,0,0
		c-0.1,0.1-0.2,0.2-0.3,0.2c-1.6,1.5-3.4,2.7-5.4,3.5l6.3,16.5C325.3,366.9,329.1,364.4,332.4,361.3L332.4,361.3z M280.9,238.3
		c0-0.5,0-1,0-1.6c6.4,0.3,12.8-1.3,18.4-4.5l3.4,3.4c6.3,6.3,6.3,16.5,0,22.8c-6.3,6.3-16.5,6.3-22.8,0l-3.4-3.4
		C279.4,250,281,244.2,280.9,238.3z M241.2,290.5c2.9-5.1,4.5-10.9,4.5-16.8c0-0.5,0-1,0-1.6c6.4,0.3,12.8-1.3,18.4-4.5l3.4,3.4
		c6.3,6.3,6.3,16.5,0,22.8c-6.3,6.3-16.5,6.3-22.8,0l0,0L241.2,290.5z M285.4,299.3c2.9-5.1,4.5-10.9,4.5-16.8c0-0.5,0-1,0-1.6
		c6.4,0.3,12.8-1.3,18.4-4.5l3.4,3.4c6.3,6.3,6.3,16.5,0,22.8c-6.3,6.3-16.5,6.3-22.8,0L285.4,299.3z"/>
	<path class="st1" d="M502.1,423.2l-50.9-11.7l4-17.2l52.5,12.1C506.1,412.1,504.3,417.7,502.1,423.2L502.1,423.2z"/>
	<path class="st1" d="M477.7,463.1l-44.3-31.6l10.3-14.4l44.7,32C485.1,454,481.5,458.7,477.7,463.1z"/>
	<path class="st1" d="M437.4,495.2l-26.5-48l15.5-8.5l26.1,47.2C447.6,489.3,442.6,492.4,437.4,495.2L437.4,495.2z"/>
	<path class="st1" d="M398.9,509l-8.5-52.6l17.4-2.8l8.2,50.9C410.4,506.3,404.7,507.9,398.9,509L398.9,509z"/>
</g>
</svg>
