<?xml version="1.0" encoding="utf-8"?>
<!-- Generator: Adobe Illustrator 24.1.2, SVG Export Plug-In . SVG Version: 6.00 Build 0)  -->
<svg version="1.1" id="Layer_1" xmlns="http://www.w3.org/2000/svg" xmlns:xlink="http://www.w3.org/1999/xlink" x="0px" y="0px"
	 viewBox="0 0 512 512" style="enable-background:new 0 0 512 512;" xml:space="preserve">
<style type="text/css">
	.st0{fill:#D44A35;}
	.st1{fill:#DB5139;}
	.st2{fill:#D94F39;}
	.st3{fill:#EB604B;}
	.st4{fill:#F5BB60;}
	.st5{fill:#3D5671;}
	.st6{fill:#F36F5B;}
</style>
<g id="Flat">
	<path class="st0" d="M229.5,476.7h-28c-13.8,0-25-11.2-25-25l0,0c0-6.6,2.6-13,7.3-17.7L290.7,326L189.8,216.3L78,328.1
		c-4.7,4.7-11,7.3-17.7,7.3c-13.8,0-25-11.2-25-25l0,0v-28c0-19.5-15.8-35.3-35.3-35.3v61.2c0,34.5,27.9,62.4,62.4,62.4
		c16.6,0,32.4-6.6,44.1-18.3l17-17l53,53l-17,17c-11.7,11.7-18.3,27.6-18.3,44.1c0,34.5,27.9,62.4,62.4,62.4h61.2
		C264.9,492.5,249,476.7,229.5,476.7z"/>
	<path class="st1" d="M512,350.2L512,350.2c0,17.9-7,35-19.6,47.7L390,501.5c-6.6,6.7-15.7,10.5-25.1,10.5h-64.7l81.4-81.4
		c4.5-4.5,10.2-7.7,16.4-9.3l25.8-6.5l43.8-43.8c12.2-12.2,12.2-31.9,0-44.1c-5.9-5.9-13.8-9.2-22.1-9.1h-1.4
		c-8.3,0-16.3,3.3-22.2,9.2L317.8,432.4c-24.2,24.4-63.7,24.6-88.1,0.3c-11.8-11.7-18.4-27.6-18.4-44.2v-0.1
		c0-9.8,2.3-19.5,6.8-28.3c1.2-2.3,0.3-5.2-2-6.4c-1.8-1-4.1-0.6-5.5,0.8L90.4,474.5c-20.8,20.8-48.1,33.8-77.3,36.8
		C8.8,511.8,4.4,512,0,512c0-4.4,0.2-8.8,0.7-13.2c3-29.2,16-56.4,36.8-77.2l120.1-120.1c1.8-1.9,1.8-4.9,0-6.7
		c-1.5-1.5-3.7-1.8-5.5-0.8c-8.8,4.5-18.5,6.8-28.3,6.8h-0.1c-34.4,0-62.3-27.9-62.3-62.3c0-16.6,6.6-32.5,18.4-44.2L185,90.1
		c5.9-5.9,9.2-13.8,9.2-22.2v-1.4c0-17.2-14-31.2-31.2-31.2c-8.3,0-16.2,3.3-22.1,9.1L97.1,88.3l-6.5,25.8
		c-1.6,6.2-4.8,11.9-9.3,16.4L0,211.9v-64.7c0-9.4,3.8-18.5,10.5-25.1L114.2,19.6C126.8,7,144,0,161.8,0h0.1
		c37.4,0,67.7,30.3,67.7,67.7c0,17.9-7.1,35-19.6,47.7L103.8,222.8c-4.6,4.7-7.2,11-7.2,17.6v0.1c0,13.8,11.2,25,24.9,25
		c6.6,0,13-2.6,17.7-7.3c0,0,45.8-44.5,46.3-46.3c0.4-1.7,114.8,114.8,114.8,114.8l-46.3,46.2c-9.8,9.7-9.8,25.6,0,35.3
		c4.7,4.7,11,7.3,17.7,7.3h0.1c6.6,0,12.9-2.6,17.6-7.2l107.5-106.1c26.6-26.3,69.4-26.2,95.8,0.4C505,315.2,512,332.3,512,350.2
		L512,350.2z"/>
	<path class="st2" d="M185.4,211.9l-18.3,17l114.8,114.8l18.3-17L185.4,211.9z"/>
	<g>
		<path class="st0" d="M199.8,323.4L13.2,511.3C8.8,511.8,4.4,512,0,512c0-4.4,0.2-8.8,0.7-13.2l186.6-187.8L199.8,323.4z"/>
		<path class="st0" d="M208.1,296.3L198,281.8c0.5-0.3,1-0.7,1.4-1c11-8.5,18.2-21,20-34.7l0.7-5.1l17.5,2.4l-0.7,5.1
			c-2.4,18.5-12.1,35.2-26.9,46.5C209.4,295.4,208.8,295.8,208.1,296.3z"/>
		<path class="st0" d="M230.2,314l-14.5-10.1c0.5-0.6,0.9-1.3,1.4-1.9c10.9-14.4,26.9-24,44.7-26.9l4.9-0.8l3,17.4l-4.9,0.8
			c-13.3,2.1-25.4,9.3-33.5,20.1C230.9,313,230.5,313.5,230.2,314L230.2,314z"/>
	</g>
	<g>
		<path class="st3" d="M35.3,123.6H53v17.7H35.3L35.3,123.6z"/>
		<path class="st3" d="M61.8,105.9h17.7v17.7H61.8V105.9z"/>
		<path class="st3" d="M26.5,150.1h17.7v17.7H26.5L26.5,150.1z"/>
		<path class="st3" d="M370.8,459h17.7v17.7h-17.7V459z"/>
		<path class="st3" d="M388.4,432.6h17.7v17.7h-17.7V432.6z"/>
		<path class="st3" d="M344.3,467.9H362v17.7h-17.7V467.9z"/>
	</g>
	<circle class="st4" cx="167.1" cy="237.7" r="26.5"/>
	<circle class="st5" cx="167.1" cy="237.7" r="13.2"/>
	<circle class="st4" cx="273" cy="343.6" r="26.5"/>
	<circle class="st5" cx="273" cy="343.6" r="13.2"/>
	<path class="st1" d="M335.5,0H512l0,0v176.6c0,19.5-15.8,35.3-35.3,35.3H300.2l0,0V35.3C300.2,15.8,316,0,335.5,0z"/>
	<path class="st3" d="M185.4,211.9l46.8-46.8c61.3-61.3,141-100.7,226.9-112.1c-11.5,85.9-50.9,165.6-112.1,226.9l-46.8,46.8
		L185.4,211.9z"/>
	<path class="st6" d="M258.6,240.9l11.9-11.9l12.5,12.5L271,253.4L258.6,240.9z"/>
	<path class="st6" d="M282.6,216.9l126-126l12.5,12.5l-126,126L282.6,216.9z"/>
	<path class="st1" d="M335.5,0H512l0,0v176.6c0,19.5-15.8,35.3-35.3,35.3H300.2l0,0V35.3C300.2,15.8,316,0,335.5,0z"/>
	<path class="st3" d="M185.4,211.9l46.8-46.8c61.3-61.3,141-100.7,226.9-112.1c-11.5,85.9-50.9,165.6-112.1,226.9l-46.8,46.8
		L185.4,211.9z"/>
	<path class="st6" d="M258.6,240.9l11.9-11.9l12.5,12.5L271,253.4L258.6,240.9z"/>
	<path class="st6" d="M282.6,216.9l126-126l12.5,12.5l-126,126L282.6,216.9z"/>
</g>
</svg>
