<?xml version="1.0" encoding="utf-8"?>
<!-- Generator: Adobe Illustrator 24.1.2, SVG Export Plug-In . SVG Version: 6.00 Build 0)  -->
<svg version="1.1" id="Layer_1" xmlns="http://www.w3.org/2000/svg" xmlns:xlink="http://www.w3.org/1999/xlink" x="0px" y="0px"
	 viewBox="0 0 512 512" style="enable-background:new 0 0 512 512;" xml:space="preserve">
<style type="text/css">
	.st0{fill:#677B92;}
	.st1{fill:#748597;}
	.st2{fill:#3D5671;}
	.st3{fill:#5F748D;}
</style>
<g id="Flat">
	<path class="st0" d="M253.6,361.9c16.9,0,31.7-11.5,35.8-28l10.7-42.6v53c0,9.8,7.9,17.7,17.7,17.7h132.4
		c34.1,0,61.8-27.7,61.8-61.8V53c0-29.3-23.7-53-53-53H211.9c-34.1,0-61.8,27.7-61.8,61.8v132.4c0,9.8,7.9,17.7,17.7,17.7h53
		L178,222.5c-16.4,4.1-28,18.9-28,35.8c0,9.8,3.9,19.2,10.8,26.1l66.6,66.6C234.5,358,243.9,361.9,253.6,361.9L253.6,361.9z"/>
	<path class="st1" d="M267.7,231.5c-13.5,4.5-25.7,12.2-35.6,22.4L3.8,490.4c-2.4,2.4-3.8,5.7-3.8,9.1c0,6.9,5.6,12.5,12.6,12.5
		c3.3,0,6.4-1.3,8.7-3.5l236.8-228.6c10.2-9.9,17.9-22.1,22.4-35.6c1.2-3.6,0.3-7.6-2.4-10.3C275.4,231.2,271.4,230.3,267.7,231.5z"
		/>
	<path class="st2" d="M406.1,70.6c-9.8,0-17.7-7.9-17.7-17.7s7.9-17.7,17.7-17.7s17.7,7.9,17.7,17.7
		C423.7,62.7,415.8,70.6,406.1,70.6z"/>
	<path class="st2" d="M459,123.6c-9.8,0-17.7-7.9-17.7-17.7s7.9-17.7,17.7-17.7s17.7,7.9,17.7,17.7
		C476.7,115.7,468.8,123.6,459,123.6z"/>
	<path class="st3" d="M282.1,134.8l-17-4.9c11.9-41.2,44.7-73,86.3-83.5l8.3-2.1l4.3,17.1l-8.3,2.1
		C320.3,72.5,292.3,99.7,282.1,134.8L282.1,134.8z"/>
	<path class="st3" d="M390.8,246.8l-4.9-17c35.2-10.1,62.3-38.2,71.2-73.7l2.1-8.3l17.1,4.3l-2.1,8.3
		C463.9,202.1,432.1,235,390.8,246.8z"/>
	<path class="st1" d="M293.8,205.6L408.6,90.9l12.5,12.5L306.3,218.1L293.8,205.6z"/>
</g>
</svg>
