<svg height="512" viewBox="0 0 512 512" width="512" xmlns="http://www.w3.org/2000/svg"><g id="Flat"><path d="m328 448h-144l5.33-64 5.34-64 10.66-128 2.67-32-17.344-11.562a14.951 14.951 0 0 1 -6.656-12.438h144a14.951 14.951 0 0 1 -6.656 12.438l-17.344 11.562 2.67 32 10.66 128 5.34 64z" fill="#e8e8e8"/><path d="m328 136a14.951 14.951 0 0 1 -6.656 12.438l-17.344 11.562h-96l-17.344-11.562a14.951 14.951 0 0 1 -6.656-12.438z" fill="#dedede"/><path d="m296 64h-80v-5.578a34.423 34.423 0 0 1 15.328-28.641 34.428 34.428 0 0 1 19.094-5.781h11.156a34.428 34.428 0 0 1 19.094 5.781 34.423 34.423 0 0 1 15.328 28.641z" fill="#e8e8e8"/><path d="m216 64h80v72h-80z" fill="#f5bb60"/><path d="m320 88h-128a8 8 0 0 0 -8 8v40h144v-40a8 8 0 0 0 -8-8zm-56 16h16v16h-16zm-16 16h-16v-16h16zm-48-16h16v16h-16zm112 16h-16v-16h16z" fill="#e8e8e8"/><path d="m240 416h32v32h-32z" fill="#c9c9c9"/><path d="m312 256h-112l5.33-64h101.34z" fill="#eb604b"/><path d="m322.67 384h-133.34l5.34-64h122.66z" fill="#eb604b"/><path d="m128 448h256v40h-256z" fill="#e8e8e8"/><path d="m168 448h176v40h-176z" fill="#f1f1f1"/><g fill="#f5bb60"><path d="m16 88h24v16h-24z"/><path d="m56 88h104v16h-104z"/><path d="m13.515 140.545h154.819v16h-154.819z" transform="matrix(.968 -.251 .251 .968 -34.417 27.622)"/><path d="m82.925-33.954h16v154.819h-16z" transform="matrix(.251 -.968 .968 .251 26.013 120.54)"/><path d="m472 88h24v16h-24z"/><path d="m352 88h104v16h-104z"/><path d="m413.075 71.135h16v154.819h-16z" transform="matrix(.251 -.968 .968 .251 171.471 518.771)"/><path d="m343.666 35.455h154.819v16h-154.819z" transform="matrix(.968 -.251 .251 .968 2.595 107.229)"/></g><path d="m88 480h336v16h-336z" fill="#91abb2"/><path d="m243.306 224.665-15.946-1.33-2.722 32.665h16.056z" fill="#f2765d"/><path d="m246.01 192-1.37 16.66-15.95-1.32 1.28-15.34z" fill="#f2765d"/><path d="m240.694 256h-16.056l-5.333 64h16.056z" fill="#ebebeb"/><path d="m219.305 320-3.278 39.335 15.946 1.33 3.388-40.665z" fill="#f2765d"/></g></svg>