<svg height="512" viewBox="0 0 512 512" width="512" xmlns="http://www.w3.org/2000/svg"><g id="Flat"><path d="m184 256h144v240h-144z" fill="#d5d5d5"/><path d="m184 256h24v240h-24z" fill="#d0d0d0"/><g fill="#c9c9c9"><path d="m184 296h144v32h-144z"/><path d="m184 360h144v32h-144z"/><path d="m184 424h144v32h-144z"/></g><g fill="#c2c2c2"><path d="m184 296h24v32h-24z"/><path d="m184 360h24v32h-24z"/><path d="m184 424h24v32h-24z"/></g><rect fill="#f8c3af" height="232" rx="72" width="144" x="184" y="40"/><path d="m220 160a12 12 0 1 1 12-12 12.013 12.013 0 0 1 -12 12z" fill="#3d5671"/><path d="m292 160a12 12 0 1 1 12-12 12.013 12.013 0 0 1 -12 12z" fill="#3d5671"/><path d="m180 128h4a0 0 0 0 1 0 0v56a0 0 0 0 1 0 0h-4a28 28 0 0 1 -28-28 28 28 0 0 1 28-28z" fill="#f3baa4"/><path d="m356 128h4a0 0 0 0 1 0 0v56a0 0 0 0 1 0 0h-4a28 28 0 0 1 -28-28 28 28 0 0 1 28-28z" fill="#f3baa4" transform="matrix(-1 0 0 -1 688 312)"/><path d="m288 296h-64a40 40 0 0 1 -40-40v-128l24 56h96l24-56v128a40 40 0 0 1 -40 40z" fill="#e5e5e5"/><path d="m280 40h-48a48 48 0 0 0 -28.8 9.6 48 48 0 0 0 -19.2 38.4v40l32-40h80l32 40v-40a48 48 0 0 0 -19.2-38.4 48 48 0 0 0 -28.8-9.6z" fill="#e5e5e5"/><path d="m224 184h32a0 0 0 0 1 0 0 40 40 0 0 1 -40 40h-32a0 0 0 0 1 0 0 40 40 0 0 1 40-40z" fill="#f1f1f1"/><path d="m256 184h32a40 40 0 0 1 40 40 0 0 0 0 1 0 0h-32a40 40 0 0 1 -40-40 0 0 0 0 1 0 0z" fill="#f1f1f1"/><path d="m176 88h160a0 0 0 0 1 0 0 32 32 0 0 1 -32 32h-96a32 32 0 0 1 -32-32 0 0 0 0 1 0 0z" fill="#3d5671"/><path d="m176 88-5.352-10.7a25.087 25.087 0 0 1 -2.648-11.221 25.083 25.083 0 0 1 17.151-23.8l39.67-13.223a98.578 98.578 0 0 1 31.179-5.056 98.578 98.578 0 0 1 31.179 5.06l39.67 13.223a25.083 25.083 0 0 1 17.151 23.796 25.087 25.087 0 0 1 -2.648 11.221l-5.352 10.7z" fill="#e8e8e8"/><path d="m273.343 59.563a29.237 29.237 0 0 1 -9.343 8.892v-6.62a16 16 0 1 0 -16 0v6.62a29.237 29.237 0 0 1 -9.343-8.892l-13.314 8.874a45.207 45.207 0 0 0 26.713 18.824l2.006.5a8.009 8.009 0 0 0 3.876 0l2.007-.5a45.2 45.2 0 0 0 26.712-18.823z" fill="#f5bb60"/><path d="m328 496h128v-168.382a64 64 0 0 0 -45.61-61.3l-34.39-10.318h-48z" fill="#3d5671"/><path d="m378.296 240-10.296 31.735 68.171 24.265 10.296-31.735z" fill="#475e78"/><path d="m328 184a90.374 90.374 0 0 1 44.838 11.907l35.162 20.093-40 64 16 24-56 120z" fill="#677b92"/><path d="m360 376v32l-15.206-6.083a138.672 138.672 0 0 0 -51.494-9.917h-21.3v32h4.987a148.316 148.316 0 0 1 66.329 15.658 79.015 79.015 0 0 0 35.337 8.342h13.347a32 32 0 0 0 32-32v-40z" fill="#f5bb60"/><rect fill="#f3baa4" height="64" rx="16" width="96" x="304" y="432"/><path d="m184 496h-128v-168.382a64 64 0 0 1 45.61-61.3l34.39-10.318h48z" fill="#3d5671"/><path d="m112 368h16v128h-16z" fill="#28425c"/><path d="m133.704 240 10.296 31.735-68.171 24.265-10.296-31.735z" fill="#475e78"/><path d="m184 184a90.374 90.374 0 0 0 -44.838 11.907l-35.162 20.093 40 64-16 24 56 120z" fill="#677b92"/></g></svg>