<?xml version="1.0" encoding="utf-8"?>
<!-- Generator: Adobe Illustrator 24.1.2, SVG Export Plug-In . SVG Version: 6.00 Build 0)  -->
<svg version="1.1" id="Capa_1" xmlns="http://www.w3.org/2000/svg" xmlns:xlink="http://www.w3.org/1999/xlink" x="0px" y="0px"
	 viewBox="0 0 512 512" style="enable-background:new 0 0 512 512;" xml:space="preserve">
<g>
	<g>
		<path d="M286.3,157V8.5c0-4.7-3.8-8.5-8.5-8.5h-51.2c-4.7,0-8.5,3.8-8.5,8.5V157c-31.7,18-51.2,51.2-51.2,88v258.5
			c0,4.7,3.8,8.5,8.5,8.5h153.6c4.7,0,8.5-3.8,8.5-8.5V245C337.5,208.2,318,175,286.3,157z M320.4,494.9H183.9V245
			c0-32.1,17.8-60.9,46.5-75.2c2.9-1.5,4.7-4.4,4.7-7.6V17.1h34.1v145.1c0,3.2,1.8,6.2,4.7,7.6c28.7,14.3,46.5,43.2,46.5,75.2
			L320.4,494.9L320.4,494.9z"/>
	</g>
</g>
<g>
	<g>
		<rect x="226.5" y="42.7" width="51.2" height="17.1"/>
	</g>
</g>
<g>
	<g>
		<rect x="226.5" y="119.5" width="51.2" height="17.1"/>
	</g>
</g>
<g>
	<g>
		<path d="M294.8,264.5h-85.3c-4.7,0-8.5,3.8-8.5,8.5v153.6c0,4.7,3.8,8.5,8.5,8.5h85.3c4.7,0,8.5-3.8,8.5-8.5V273.1
			C303.3,268.3,299.5,264.5,294.8,264.5z M286.3,418.1H218V281.6h68.3V418.1z"/>
	</g>
</g>
</svg>
