<?xml version="1.0" encoding="UTF-8"?>
<svg xmlns="http://www.w3.org/2000/svg" viewBox="0 0 512 512" width="512" height="512"><g id="Outline"><path d="M480,144.022V112a74.5,74.5,0,0,0-51.007-70.768L364.383,19.7A71.86,71.86,0,0,0,341.614,16H336a72.081,72.081,0,0,0-72,72,8,8,0,0,0,12.438,6.656A46.816,46.816,0,0,1,319.81,90.14l21.626,8.651A24.036,24.036,0,0,1,320,112H288a8,8,0,0,0-8,8,39.991,39.991,0,0,0,40,40h88v16H368a56.326,56.326,0,0,0-47.124,25.761q-3.393-1.048-6.812-1.986a24,24,0,1,0-40.421-7.064q-8.772-.7-17.643-.711t-17.643.711a24,24,0,1,0-40.421,7.064q-3.42.936-6.812,1.986A56.326,56.326,0,0,0,144,176H104V160h72a57.949,57.949,0,0,0,53.594-36.259l6.828,3.414A8,8,0,0,0,248,120a72.081,72.081,0,0,0-72-72H96A63.331,63.331,0,0,0,56.225,61.858l9.95,12.529A47.492,47.492,0,0,1,96,64h80a56.1,56.1,0,0,1,54.275,42.183A8,8,0,0,0,224.792,104H160a40.045,40.045,0,0,0-40,40H98.564l-50.4-36A47.6,47.6,0,0,1,56.6,84.577L43.476,75.423A63.619,63.619,0,0,0,32,112v32.022A39.962,39.962,0,0,0,16,176v8.333H32V176a24.037,24.037,0,0,1,20.42-23.733l-2.077,2.076A8,8,0,0,0,48,160v43.056l-16,8V197H16v75a39.964,39.964,0,0,0,16.028,32A39.964,39.964,0,0,0,16,336v80a40.051,40.051,0,0,0,35.216,39.7A40.058,40.058,0,0,0,88,480h16a8,8,0,0,0,5.657-13.657L96,452.687V376h24.022A39.788,39.788,0,0,0,112,400v40a40.048,40.048,0,0,0,38.041,39.95A36.2,36.2,0,0,0,180,496h24a36,36,0,0,0,0-72H160V408h40A40.067,40.067,0,0,0,239.2,376H352v16H312a24,24,0,0,1-19.906-10.587l-13.258,8.957A39.981,39.981,0,0,0,312,408h40v16H308a36,36,0,1,0,0,72h24a36.2,36.2,0,0,0,29.959-16.05A40.048,40.048,0,0,0,400,440V400a39.788,39.788,0,0,0-8.022-24H416v76.687l-13.657,13.656A8,8,0,0,0,408,480h16a40.058,40.058,0,0,0,36.784-24.3A40.051,40.051,0,0,0,496,416V343.5H480v19.556l-16,8v-57.7a23.871,23.871,0,0,1,15.676,18.688l15.785-2.614a39.822,39.822,0,0,0-15.442-25.464A39.96,39.96,0,0,0,496,272V176A39.962,39.962,0,0,0,480,144.022ZM296,176a8,8,0,1,1-8,8A8.009,8.009,0,0,1,296,176Zm-80,0a8,8,0,1,1-8,8A8.009,8.009,0,0,1,216,176Zm-56-56h53.788A41.9,41.9,0,0,1,176,144H136A24.028,24.028,0,0,1,160,120ZM419.314,264l-7.432-7.431A221.708,221.708,0,0,0,393.326,240H424a55.915,55.915,0,0,0,24-5.41V264ZM424,156.117l9.849-7.035c.16.194.313.394.494.575L448,163.313V176H424ZM480,176v35.056l-16-8V160a8,8,0,0,0-2.343-5.657l-2.077-2.076A24.037,24.037,0,0,1,480,176Zm-32,16v23.993A39.892,39.892,0,0,1,424,224V192Zm16,28.944,16,8V264H464ZM456,136h-3.836L464,127.545v9.26A40.028,40.028,0,0,0,456,136Zm-152.973.973A23.918,23.918,0,0,1,297.358,128H320a40.068,40.068,0,0,0,36.323-23.254l2,.8a15.326,15.326,0,0,1,9.681,14.3V144H320A23.847,23.847,0,0,1,303.027,136.973Zm61.235-46.285-38.51-15.4a62.811,62.811,0,0,0-44.058-.981A56.1,56.1,0,0,1,336,32h5.614a55.89,55.89,0,0,1,17.709,2.874l64.611,21.537a58.517,58.517,0,0,1,39.93,51.569L413.436,144H384V119.843A31.252,31.252,0,0,0,364.262,90.688ZM368,192h40v32H370.4a220.93,220.93,0,0,0-30.041-15.219c-1.255-.52-2.516-1.016-3.777-1.511A40.228,40.228,0,0,1,368,192Zm-224,0a40.228,40.228,0,0,1,31.414,15.27c-1.261.495-2.522.991-3.777,1.511A220.93,220.93,0,0,0,141.6,224H104V192ZM92.686,264H64V192H88v32a39.891,39.891,0,0,1-13.333-2.274l-5.334,15.085A55.863,55.863,0,0,0,88,240h30.674a221.714,221.714,0,0,0-18.556,16.568ZM77.657,149.657c.181-.181.334-.38.494-.575L88,156.117V176H64V163.313ZM32,228.944l16-8V264H32Zm16-92.139v-9.26L59.836,136H56A40.028,40.028,0,0,0,48,136.805ZM33.371,280H92.687l16,16H56A24.042,24.042,0,0,1,33.371,280ZM120,328H64V312h60.687l10.538,10.539A24.038,24.038,0,0,1,120,328ZM80,403.056l-16-8V368a24.042,24.042,0,0,1,16-22.629ZM32,336a24.042,24.042,0,0,1,16-22.629v57.685l-16-8Zm0,80V380.944l16,8v49.68A24.038,24.038,0,0,1,32,416Zm32,24V412.944l16,8V456a8,8,0,0,0,2.343,5.657l2.077,2.076A24.037,24.037,0,0,1,64,440Zm32-96h60.687l10.538,10.539A24.038,24.038,0,0,1,152,360H96Zm48,48H129.371A24.115,24.115,0,0,1,144,377.371Zm-16,48V408h16v54.629A24.042,24.042,0,0,1,128,440Zm96,20a20,20,0,0,1-20,20H180a19.9,19.9,0,0,1-8.2-1.777A40.071,40.071,0,0,0,200,440h4A20.023,20.023,0,0,1,224,460Zm-40-20a24.027,24.027,0,0,1-24,24V440Zm16-48H160V376h62.629A24.042,24.042,0,0,1,200,392Zm5.255-32a23.847,23.847,0,0,1-16.971-7.029L107.314,272l4.118-4.118a204.448,204.448,0,0,1,289.136,0L404.686,272l-80.97,80.971A23.847,23.847,0,0,1,306.745,360ZM448,395.056l-16,8V345.371A24.042,24.042,0,0,1,448,368ZM448,328H392a24.038,24.038,0,0,1-15.225-5.461L387.313,312H448Zm-80,49.387A24.109,24.109,0,0,1,382.629,392H368ZM352,440v24a24.027,24.027,0,0,1-24-24Zm-44,40a20,20,0,0,1,0-40h4a40.071,40.071,0,0,0,28.2,38.223A19.9,19.9,0,0,1,332,480Zm76-40a24.042,24.042,0,0,1-16,22.629V408h16Zm-24-80a24.038,24.038,0,0,1-15.225-5.461L355.313,344H416v16Zm88,80a24.037,24.037,0,0,1-20.42,23.733l2.077-2.076A8,8,0,0,0,432,456V420.944l16-8Zm32-24a24.038,24.038,0,0,1-16,22.624v-49.68l16-8ZM403.313,296l16-16h59.316A24.042,24.042,0,0,1,456,296Z"/><path d="M301.6,292.8a31.7,31.7,0,0,0-4.466-4.8,31.7,31.7,0,0,0,4.466-4.8l16.8-22.4-12.8-9.6-16.8,22.4A16.079,16.079,0,0,1,276,280H236a16.079,16.079,0,0,1-12.8-6.4l-16.8-22.4-12.8,9.6,16.8,22.4a31.7,31.7,0,0,0,4.466,4.8,31.7,31.7,0,0,0-4.466,4.8l-16.8,22.4,12.8,9.6,16.8-22.4A16.079,16.079,0,0,1,236,296h40a16.079,16.079,0,0,1,12.8,6.4l16.8,22.4,12.8-9.6Z"/></g></svg>
