<?xml version="1.0" encoding="UTF-8"?>
<svg xmlns="http://www.w3.org/2000/svg" viewBox="0 0 512 512" width="512" height="512"><g id="Outline"><path d="M174.281,136.157l-18.014,27.021,13.312,8.875L188.281,144H359.457a40.1,40.1,0,0,1,32.428,16.581L426.852,209l12.97-9.369-12.99-17.987.138-.1-66.9-92.921A40.121,40.121,0,0,0,327.61,72H144a8,8,0,0,0-6.51,12.65ZM180,88l21.6,28.8,12.8-9.6L200,88h20l21.6,28.8,12.8-9.6L240,88h20l21.6,28.8,12.8-9.6L280,88h20l21.6,28.8,12.8-9.6L320,88h7.61a24.079,24.079,0,0,1,19.478,9.974l22.257,30.914a55.627,55.627,0,0,0-9.888-.888H188.117L159.546,88Z"/><path d="M489.941,269.024l-41.6-57.6-12.971,9.369,41.6,57.6c.187.259.358.526.528.794l-51.156,51.156,11.314,11.314L480,299.314v10.745a15.892,15.892,0,0,1-4.687,11.314l-41.941,41.941A15.891,15.891,0,0,1,422.059,368H402.807L368,340.155V283.313l37.657-37.656-11.314-11.314-40,40A8,8,0,0,0,352,280v64a8,8,0,0,0,3,6.247L377.193,368H188.281L128,277.578V234.422l31.733-47.6-13.312-8.876L115.9,223.722a30.383,30.383,0,0,1-17.56-8.692L80.97,197.656A46.325,46.325,0,0,0,48,184H24a8,8,0,0,0-8,8V320a8,8,0,0,0,8,8H48a46.326,46.326,0,0,0,32.971-13.657l17.372-17.372a30.381,30.381,0,0,1,17.561-8.693l58.377,87.565L137.49,427.35A8,8,0,0,0,144,440H252.962a31.968,31.968,0,0,0,24.3-11.174l21.9-25.549-12.148-10.413-21.9,25.549A15.98,15.98,0,0,1,252.962,424H240l14.4-19.2-12.8-9.6L220,424H200l14.4-19.2-12.8-9.6L180,424H159.546l28.571-40H334.606l-36.68,42.793A8,8,0,0,0,304,440h36.962a31.964,31.964,0,0,0,24.3-11.175l23.663-27.607-12.149-10.412-23.663,27.607A15.98,15.98,0,0,1,340.962,424H321.394l34.286-40h66.379a31.793,31.793,0,0,0,22.628-9.373l41.941-41.941A31.79,31.79,0,0,0,496,310.059v-22.3A31.81,31.81,0,0,0,489.941,269.024ZM87.029,285.657,69.657,303.029A30.427,30.427,0,0,1,48,312H32V296H64V280H32V264H64V248H32V232H64V216H32V200H48a30.426,30.426,0,0,1,21.656,8.97L87.03,226.344A46.293,46.293,0,0,0,112,239.321v33.358A46.294,46.294,0,0,0,87.029,285.657Z"/><circle cx="432" cy="280" r="16"/><path d="M328,312V296H268.845a61.775,61.775,0,0,0-51.5,27.562,8,8,0,0,0,3.685,11.866l40,16a7.993,7.993,0,0,0,3.963.51l64-8-1.984-15.876-61.952,7.744-27.87-11.148A45.8,45.8,0,0,1,268.845,312Z"/><path d="M360,200h8V184h-8a32.056,32.056,0,0,0-30.58,22.568A15.99,15.99,0,0,1,336,176h8V160h-8a32.057,32.057,0,0,0-30.987,24H304a32.057,32.057,0,0,0-31,24.069,7.983,7.983,0,0,0-1-.069,16,16,0,0,1,0-32h8V160h-8a32.057,32.057,0,0,0-30.987,24H240a32.057,32.057,0,0,0-31,24.069,7.983,7.983,0,0,0-1-.069,16,16,0,0,1,0-32h8V160h-8a31.987,31.987,0,0,0-21.145,56,31.849,31.849,0,0,0-10.578,28.142A31.992,31.992,0,0,0,192,304h8V288h-8a16,16,0,0,1-9.588-28.808A31.967,31.967,0,0,0,208,272h1.036a32.048,32.048,0,0,0,20.3,22.177l5.332-15.086A16,16,0,0,1,240,248a7.983,7.983,0,0,0,1-.069A32.057,32.057,0,0,0,272,272h1.026a32.047,32.047,0,0,0,9.639,15.85l10.67-11.922A16,16,0,0,1,304,248a7.983,7.983,0,0,0,1-.069A32.057,32.057,0,0,0,336,272h8V256h-8a15.99,15.99,0,0,1-6.58-30.568A32.057,32.057,0,0,0,360,248h8V232h-8a16,16,0,0,1,0-32ZM209.023,256H208a16,16,0,0,1,0-32,8.13,8.13,0,0,0,1.006-.07A32.043,32.043,0,0,0,218.855,240,32.053,32.053,0,0,0,209.023,256Zm31.983-23.93A8.13,8.13,0,0,0,240,232a16,16,0,0,1,0-32h1.023a32.053,32.053,0,0,0,9.832,16A32.043,32.043,0,0,0,241.006,232.07ZM273.023,256H272a16,16,0,0,1,0-32,8.13,8.13,0,0,0,1.006-.07A32.043,32.043,0,0,0,282.855,240,32.053,32.053,0,0,0,273.023,256Zm31.983-23.93A8.13,8.13,0,0,0,304,232a16,16,0,0,1,0-32h1.023a32.053,32.053,0,0,0,9.832,16A32.043,32.043,0,0,0,305.006,232.07Z"/></g></svg>
