<?xml version="1.0" encoding="utf-8"?>
<!-- Generator: Adobe Illustrator 24.1.2, SVG Export Plug-In . SVG Version: 6.00 Build 0)  -->
<svg version="1.1" id="Capa_1" xmlns="http://www.w3.org/2000/svg" xmlns:xlink="http://www.w3.org/1999/xlink" x="0px" y="0px"
	 viewBox="0 0 512 512" style="enable-background:new 0 0 512 512;" xml:space="preserve">
<g>
	<g>
		<path d="M370,166.9L347.7,10.7C346.8,4.6,341.5,0,335.3,0H185.5c-6.2,0-11.5,4.6-12.4,10.7l-22.3,155.5
			c-2.1,14.2-1.3,28.5,2.2,42.2l2.2,9.2c12.1,48.4,55.4,82.1,105.2,82.1c0.1,0,0.1,0,0.2,0c49.5,0,92.7-33.5,105.1-81.7l2-8.7
			C371.4,195.4,372.1,181.1,370,166.9z M343.5,203.3l-2.1,8.7c-9.5,36.9-42.8,62.7-80.9,62.7c-0.1,0-0.1,0-0.2,0
			c-38.4,0-71.7-26-81-63.1l-2.2-9.3c-2.8-10.7-3.4-21.6-1.7-32.5L196.3,25h128.2l20.8,145.6C347,181.4,346.4,192.4,343.5,203.3z"/>
	</g>
</g>
<g>
	<g>
		<rect x="247.9" y="287.2" width="25" height="162.3"/>
	</g>
</g>
<g>
	<g>
		<path d="M285.4,437.1h-50c-34.4,0-62.4,28-62.4,62.4c0,6.9,5.6,12.5,12.5,12.5h149.9c6.9,0,12.5-5.6,12.5-12.5
			C347.8,465.1,319.8,437.1,285.4,437.1z M200.1,487c5.2-14.5,19.1-25,35.3-25h50c16.3,0,30.2,10.4,35.3,25H200.1z"/>
	</g>
</g>
<g>
	<g>
		<rect x="160.4" y="174.8" width="199.8" height="25"/>
	</g>
</g>
</svg>
