<?xml version="1.0" encoding="UTF-8"?>
<svg xmlns="http://www.w3.org/2000/svg" viewBox="0 0 512 512" width="512" height="512"><g id="Outline"><path d="M384.01,440H335.371l-1.63-19.561L317.8,421.767,319.316,440H280.01V416a8,8,0,0,0-8-8h-32a8,8,0,0,0-8,8v24H192.7l4-48H315.317l1.378,16.526,15.944-1.328L312.29,163.033l13.376-13.376A8,8,0,0,0,328.01,144V96a8,8,0,0,0-8-8h-16V58.422A42.423,42.423,0,0,0,261.587,16H250.432a42.2,42.2,0,0,0-16.313,3.262l6.153,14.769A26.3,26.3,0,0,1,250.432,32h11.155A26.424,26.424,0,0,1,287.9,56H224.12a26.374,26.374,0,0,1,6.716-15.3L218.969,29.965A42.352,42.352,0,0,0,208.01,58.422V88h-16a8,8,0,0,0-8,8v48a8,8,0,0,0,2.343,5.657l13.376,13.376-9.683,116.22,15.944,1.329L207.372,264h16.61l-4,48h-16.61l1.212-14.536-15.945-1.328L176.649,440H128.01a8,8,0,0,0-8,8v32h-32v16h336V480h-32V448A8,8,0,0,0,384.01,440Zm-88-336h16v16h-16Zm-72-32h64V88h-64Zm56,32v16h-16V104Zm-32,0v16h-16V104Zm-48,0h16v16h-16Zm0,36.687V136h112v4.687l-13.657,13.656a8,8,0,0,0-2.316,6.322L297.982,184H214.037l1.945-23.335a8,8,0,0,0-2.316-6.322ZM308.65,312H236.037l4-48h64.612Zm-99.945-64,4-48h16.611l-.611,7.335,15.944,1.33L245.37,200h53.946l4,48H241.371l1.944-23.335-15.944-1.33L225.315,248Zm-6.666,80h16.61l-2.612,31.335,15.945,1.33L234.7,328h75.279l4,48H198.038Zm45.971,96h16v16h-16Zm-88,56h-24V456h24Zm176,0h-160V456h160Zm40,0h-24V456h24Zm-360-376V88h24v16Zm40,0V88h104v16ZM18.02,175.743,14,160.257l149.85-38.91,4.021,15.486ZM163.849,70.653,14,31.743l4.02-15.486,149.85,38.91ZM472.01,104V88h24v16Zm-120,0V88h104v16Zm-3.84,17.347,149.85,38.91L494,175.743l-149.85-38.91Zm149.849-89.6L348.17,70.653l-4.021-15.486L494,16.257Z"/></g></svg>
