<?xml version="1.0" encoding="UTF-8"?>
<svg xmlns="http://www.w3.org/2000/svg" viewBox="0 0 512 512" width="512" height="512"><g id="Outline"><path d="M424,16H392a8,8,0,0,0-5.657,13.657L400,43.314V84.685l-24-24V40a8,8,0,0,0-8-8,32.036,32.036,0,0,0-32,32V74.334a32.163,32.163,0,0,0,3.379,14.312L360,129.885v17.271A102.894,102.894,0,0,0,370.251,192h-54.28A102.9,102.9,0,0,0,288,145.9V80a48.054,48.054,0,0,1,48-48V16a64.072,64.072,0,0,0-64,64v52.253l-1.593-1.327-7.252-14.5a8,8,0,0,0-14.31,0l-7.252,14.5L240,132.253V80a64.072,64.072,0,0,0-64-64V32a48.054,48.054,0,0,1,48,48v65.9A102.9,102.9,0,0,0,196.029,192h-54.28A102.894,102.894,0,0,0,152,147.156V64a48.168,48.168,0,0,0-24.192-41.676A7.9,7.9,0,0,0,120,16H88A71.918,71.918,0,0,0,28.091,48.053L41.4,56.939A55.949,55.949,0,0,1,88,32h12.687l-2.344,2.343A8,8,0,0,0,96,40V96a8,8,0,0,0,3,6.247l37,29.6v15.311A86.959,86.959,0,0,1,123.6,192H59.845L45.219,173.717A60.536,60.536,0,0,1,32,136.034V88a55.748,55.748,0,0,1,3.871-20.507L20.984,61.631A71.659,71.659,0,0,0,16,88v48.034a76.6,76.6,0,0,0,16.725,47.678L49.753,205c.019.024.042.045.062.069s.025.037.039.055l19.514,23.417A76.12,76.12,0,0,0,128,256h40a55.92,55.92,0,0,0,24.262-5.531,102.824,102.824,0,0,0,5.964,27.991L172.687,304H147.313l-37.656-37.657L98.343,277.657l40,40A8,8,0,0,0,144,320h32a8,8,0,0,0,5.657-2.343l23.7-23.7c.839,1.481,1.729,2.938,2.643,4.383v10.346L172.687,344H147.313l-37.656-37.657L98.343,317.657l40,40A8,8,0,0,0,144,360h32a8,8,0,0,0,5.657-2.343L208,331.314V350.7L180.253,384h-32.94l-37.656-37.657L98.343,357.657l40,40A8,8,0,0,0,144,400h40a8,8,0,0,0,6.146-2.878L208,375.7v34.058l-34.12,8.53A39.447,39.447,0,0,0,183.447,496H328.553a39.453,39.453,0,0,0,36.292-54.912l-14.717,6.278a23.452,23.452,0,0,1-20.318,32.6,36.256,36.256,0,0,0-4.437-45.906l-3.292-3.293,12.158,3.04a23.454,23.454,0,0,1,10.722,6l11.2-11.427a39.462,39.462,0,0,0-18.04-10.091L304,409.754V375.7l17.854,21.426A8,8,0,0,0,328,400h40a8,8,0,0,0,5.657-2.343l40-40-11.314-11.314L364.687,384h-32.94L304,350.7v-19.39l26.343,26.343A8,8,0,0,0,336,360h32a8,8,0,0,0,5.657-2.343l40-40-11.314-11.314L364.687,344H339.313L304,308.686V298.34c.914-1.445,1.8-2.9,2.643-4.383l23.7,23.7A8,8,0,0,0,336,320h32a8,8,0,0,0,5.657-2.343l40-40-11.314-11.314L364.687,304H339.313l-25.54-25.54a102.789,102.789,0,0,0,5.965-27.991A55.92,55.92,0,0,0,344,256h40a76.12,76.12,0,0,0,58.632-27.461l19.514-23.417c.014-.018.024-.037.039-.055s.043-.045.062-.069l14.1-17.623-12.494-10L452.155,192H388.4A86.959,86.959,0,0,1,376,147.156V132.531l36.118-21.671A8.141,8.141,0,0,0,416,104V40a8,8,0,0,0-2.343-5.657L411.313,32H424a56.063,56.063,0,0,1,56,56v48.034a60.347,60.347,0,0,1-8.51,30.892l13.742,8.194A76.361,76.361,0,0,0,496,136.034V88A72.081,72.081,0,0,0,424,16ZM352,74.334V64a16.01,16.01,0,0,1,8-13.853V64a8,8,0,0,0,2.344,5.657L395.1,102.411l-23.806,14.283-17.6-35.2A16.074,16.074,0,0,1,352,74.334ZM208,220.621a87.032,87.032,0,0,1,31.4-67.04l13.722-11.435a7.983,7.983,0,0,0,2.034-2.568l.845-1.689.845,1.689a7.983,7.983,0,0,0,2.034,2.568L272.6,153.58A87.035,87.035,0,0,1,304,220.621v22.535a86.947,86.947,0,0,1-9.644,39.886l-8.7-8.7A8,8,0,0,0,280,272H232a8,8,0,0,0-5.657,2.343l-8.7,8.7A86.947,86.947,0,0,1,208,243.156Zm80,192.065L268.687,432H243.313L224,412.686V403.1l13.47,4.49A8,8,0,0,0,240,408h32a8,8,0,0,0,2.53-.411L288,403.1Zm0-113.372V316.9l-13.47-4.49A8,8,0,0,0,272,312H240a8,8,0,0,0-2.53.411L224,316.9V299.314L235.313,288h41.374ZM224,352V333.766L241.3,328h29.4l17.3,5.766V352H256v16h32v18.234L270.7,392H241.3L224,386.234V368h16V352ZM136,111.355l-24-19.2V43.314l7.381-7.381A32.116,32.116,0,0,1,136,64ZM81.659,218.3,73.08,208H120v31.472A60.143,60.143,0,0,1,81.659,218.3ZM136,240V208h56.776A104.089,104.089,0,0,0,192,220.621v11.371A39.886,39.886,0,0,1,168,240Zm24,216.553a23.414,23.414,0,0,1,17.761-22.747l12.159-3.04-3.292,3.293a36.254,36.254,0,0,0-4.438,45.906A23.475,23.475,0,0,1,160,456.553Zm32,3.163a20.146,20.146,0,0,1,5.941-14.343L208,435.314V448a47.806,47.806,0,0,0,12.261,32h-7.977A20.308,20.308,0,0,1,192,459.716ZM224,448V435.314l10.343,10.343A8,8,0,0,0,240,448h32a8,8,0,0,0,5.657-2.343L288,435.314V448a32,32,0,0,1-64,0Zm67.739,32A47.806,47.806,0,0,0,304,448V435.314l10.06,10.059A20.285,20.285,0,0,1,299.716,480ZM320,231.992V220.621A104.089,104.089,0,0,0,319.224,208H376v32H344A39.886,39.886,0,0,1,320,231.992Zm110.341-13.7A60.143,60.143,0,0,1,392,239.472V208h46.92Z"/><rect x="416" y="160" width="16" height="16"/><rect x="400" y="128" width="16" height="16"/><rect x="448" y="88" width="16" height="16"/><rect x="80" y="160" width="16" height="16"/><rect x="96" y="128" width="16" height="16"/><rect x="48" y="120" width="16" height="16"/><path d="M256.078,181.646l-11.334-11.293a71.326,71.326,0,0,0-9.521,11.852l13.472,8.631A55.361,55.361,0,0,1,256.078,181.646Z"/><path d="M240,220.621a55.276,55.276,0,0,1,3-18.018L227.874,197.4A71.231,71.231,0,0,0,224,220.621V232h16Z"/></g></svg>
