<?xml version="1.0" encoding="UTF-8"?>
<svg xmlns="http://www.w3.org/2000/svg" viewBox="0 0 512 512" width="512" height="512"><g id="Outline"><path d="M480.753,253.328a41.834,41.834,0,0,1-1.574-54.687A56.73,56.73,0,0,0,492.23,162.32a59.1,59.1,0,0,0-14.665-38.8A53.175,53.175,0,0,0,438.5,105.492,37.687,37.687,0,0,1,412.823,94.57a41.263,41.263,0,0,1-12.166-26.393c-1.729-22.5-15.578-41.2-36.143-48.809A53.049,53.049,0,0,0,308.07,31.986,37.6,37.6,0,0,1,281.34,43.21a37.749,37.749,0,0,1-24.986-9.588A52.722,52.722,0,0,0,221,19.92,55.047,55.047,0,0,0,183.246,35.3a56.674,56.674,0,0,0-17.2,40.188,41.534,41.534,0,0,1-10.62,27.137A37.979,37.979,0,0,1,130.4,115.157,53.05,53.05,0,0,0,97.325,130.18L108.5,141.629A37.234,37.234,0,0,1,131.72,131.1a53.923,53.923,0,0,0,35.572-17.736,57.521,57.521,0,0,0,14.756-37.579C182.512,50.833,202.217,35.92,221,35.92A36.961,36.961,0,0,1,245.749,45.6,53.743,53.743,0,0,0,281.34,59.21,53.5,53.5,0,0,0,319.388,43.3c10.766-10.772,25.56-14.1,39.576-8.922,14.633,5.412,24.5,18.835,25.74,35.031A57.254,57.254,0,0,0,401.629,106a53.616,53.616,0,0,0,36.548,15.485c18.7.381,38.053,15.759,38.053,40.832A40.9,40.9,0,0,1,466.8,188.5a57.9,57.9,0,0,0,2.2,75.688,40.6,40.6,0,0,1,11,27.971,43.056,43.056,0,0,1-5.64,21.294l13.9,7.926A59.1,59.1,0,0,0,496,292.16,57.075,57.075,0,0,0,480.753,253.328Z"/><path d="M444.28,332.9a53.923,53.923,0,0,0-35.572,17.736,57.521,57.521,0,0,0-14.756,37.579c-.464,24.955-20.169,39.868-38.952,39.868a35.845,35.845,0,0,1-12.6-2.293q5.064-4.588,9.933-9.454A270.219,270.219,0,0,0,432,224c0-79.4-64.6-144-144-144S144,144.6,144,224v12.394a178.921,178.921,0,0,1-26.742,94.134c-.757,1.226-1.547,2.428-2.333,3.633A42.135,42.135,0,0,1,99.77,301.68,40.9,40.9,0,0,1,109.2,275.5a58.021,58.021,0,0,0-2.2-75.688A40.6,40.6,0,0,1,96,171.84a43.33,43.33,0,0,1,4.374-18.9L86,145.922a59.4,59.4,0,0,0-6,25.918,57.08,57.08,0,0,0,15.248,38.834,42.021,42.021,0,0,1,1.573,54.685A56.73,56.73,0,0,0,83.77,301.68a58.316,58.316,0,0,0,21.811,45.508,178.9,178.9,0,0,1-60.56,49.358A52.5,52.5,0,0,0,68.5,496H160a269.931,269.931,0,0,0,169.028-58.873A52.081,52.081,0,0,0,355,444.08,55.047,55.047,0,0,0,392.754,428.7a56.674,56.674,0,0,0,17.195-40.188,41.534,41.534,0,0,1,10.62-27.137A37.981,37.981,0,0,1,445.6,348.843a52.9,52.9,0,0,0,35.186-17.2L469,320.825A37.146,37.146,0,0,1,444.28,332.9ZM68.5,480a36.5,36.5,0,0,1-16.323-69.144,194.907,194.907,0,0,0,78.693-71.916A194.925,194.925,0,0,0,160,236.394V224a128,128,0,0,1,256,0A256,256,0,0,1,160,480Z"/><path d="M366.932,144.609A111.48,111.48,0,0,0,197.208,159l13.013,9.309A95.812,95.812,0,0,1,384,224a222.533,222.533,0,0,1-65.608,158.392c-14.752,14.753-35.235,29.893-54.791,40.5-24.634,13.361-47.276,19.536-65.468,17.879-16.181-1.48-28.657-8.9-38.142-22.675l0,0c-.2-.294-.489-.718-.945-1.38a55.363,55.363,0,0,1-1.184-60.584l.23-.371q2.333-3.772,4.5-7.625c6.388-7.479,23.192-20.087,64.994-23.16,39.08-2.874,62.841-20.981,75.893-35.665C319.269,271.552,325,253.081,325,245H309c0,3.744-4.143,18.682-17.479,33.686-11.085,12.469-31.379,27.855-65.107,30.335-20.02,1.473-36.849,5.125-50.328,10.878A226.91,226.91,0,0,0,192,236.394V225.145a98.038,98.038,0,0,1,11.072-45.212l-14.182-7.409A114.116,114.116,0,0,0,176,225.145v11.249a210.88,210.88,0,0,1-26.587,102.532A35.076,35.076,0,0,0,144,348.15a71.354,71.354,0,0,0,1.868,77.639l.938,1.365.011.015c12.175,17.685,28.951,27.623,49.863,29.537q3.783.346,7.611.342c48.858,0,102.782-40.7,125.42-63.342A238.43,238.43,0,0,0,400,224,111.219,111.219,0,0,0,366.932,144.609Z"/><path d="M259.008,407.151c4.843-2.732,9.8-5.79,14.721-9.088l-8.9-13.294c-4.589,3.072-9.193,5.915-13.683,8.449Z"/><path d="M276.608,376.341l9.708,12.719a204.347,204.347,0,0,0,58.778-69.951l-14.224-7.328a192.5,192.5,0,0,1-35.105,47.983A194.586,194.586,0,0,1,276.608,376.341Z"/><path d="M261.282,148.665a79.506,79.506,0,0,0-17.793,9.111l9.022,13.215a63.407,63.407,0,0,1,14.207-7.277Z"/><path d="M228.8,170.664A81.557,81.557,0,0,0,208,225.145h16a65.582,65.582,0,0,1,16.719-43.809Z"/></g></svg>
