<?xml version="1.0" encoding="utf-8"?>
<!-- Generator: Adobe Illustrator 24.1.2, SVG Export Plug-In . SVG Version: 6.00 Build 0)  -->
<svg version="1.1" id="Layer_1" xmlns="http://www.w3.org/2000/svg" xmlns:xlink="http://www.w3.org/1999/xlink" x="0px" y="0px"
	 viewBox="0 0 512 512" style="enable-background:new 0 0 512 512;" xml:space="preserve">
<style type="text/css">
	.st0{fill:#D5D5D5;}
	.st1{fill:#D0D0D0;}
	.st2{fill:#C9C9C9;}
	.st3{fill:#C2C2C2;}
	.st4{fill:#F8C3AF;}
	.st5{fill:#3D5671;}
	.st6{fill:#F3BAA4;}
	.st7{fill:#E5E5E5;}
	.st8{fill:#F1F1F1;}
	.st9{fill:#E8E8E8;}
	.st10{fill:#F5BB60;}
	.st11{fill:#475E78;}
	.st12{fill:#677B92;}
	.st13{fill:#28425C;}
</style>
<g>
	<rect x="174.5" y="253.7" class="st0" width="156.2" height="260.3"/>
	<rect x="174.5" y="253.7" class="st1" width="26" height="260.3"/>
	<rect x="174.5" y="297.1" class="st2" width="156.2" height="34.7"/>
	<rect x="174.5" y="366.5" class="st2" width="156.2" height="34.7"/>
	<rect x="174.5" y="435.9" class="st2" width="156.2" height="34.7"/>
	<rect x="174.5" y="297.1" class="st3" width="26" height="34.7"/>
	<rect x="174.5" y="366.5" class="st3" width="26" height="34.7"/>
	<rect x="174.5" y="435.9" class="st3" width="26" height="34.7"/>
	<path class="st4" d="M252.6,19.4L252.6,19.4c43.1,0,78.1,35,78.1,78.1V193c0,43.1-35,78.1-78.1,78.1s-78.1-35-78.1-78.1V97.5
		C174.5,54.3,209.5,19.4,252.6,19.4z"/>
	<path class="st5" d="M213.6,149.5c-7.2,0-13-5.8-13-13s5.8-13,13-13s13,5.8,13,13S220.7,149.5,213.6,149.5z"/>
	<path class="st5" d="M291.7,149.5c-7.2,0-13-5.8-13-13s5.8-13,13-13s13,5.8,13,13S298.8,149.5,291.7,149.5z"/>
	<path class="st6" d="M170.2,114.8h4.3v60.7h-4.3c-16.8,0-30.4-13.6-30.4-30.4S153.4,114.8,170.2,114.8z"/>
	<path class="st6" d="M335.1,175.6h-4.3v-60.7h4.3c16.8,0,30.4,13.6,30.4,30.4S351.8,175.6,335.1,175.6z"/>
	<path class="st7" d="M287.3,297.1h-69.4c-24,0-43.4-19.4-43.4-43.4V114.8l26,60.7h104.1l26-60.7v138.8
		C330.7,277.6,311.3,297.1,287.3,297.1z"/>
	<path class="st7" d="M278.6,19.4h-52.1c-11.3,0-22.2,3.7-31.2,10.4c-13.1,9.8-20.8,25.3-20.8,41.7v43.4l34.7-43.4H296l34.7,43.4
		V71.4c0-16.4-7.7-31.8-20.8-41.7C300.9,23,289.9,19.4,278.6,19.4z"/>
	<path class="st8" d="M217.9,175.6h34.7c0,24-19.4,43.4-43.4,43.4h-34.7C174.5,195,193.9,175.6,217.9,175.6z"/>
	<path class="st8" d="M252.6,175.6h34.7c24,0,43.4,19.4,43.4,43.4H296C272,218.9,252.6,199.5,252.6,175.6z"/>
	<path class="st5" d="M165.8,71.4h173.6c0,19.2-15.5,34.7-34.7,34.7H200.5C181.4,106.1,165.8,90.6,165.8,71.4z"/>
	<path class="st9" d="M165.8,71.4L160,59.8c-1.9-3.8-2.9-7.9-2.9-12.2c0-11.7,7.5-22.1,18.6-25.8l43-14.3c11-3.6,22.4-5.5,33.9-5.5
		s22.9,1.9,33.8,5.5l43,14.3c11.1,3.7,18.6,14.1,18.6,25.8c0,4.2-1,8.4-2.9,12.2l-5.8,11.6H165.8z"/>
	<path class="st10" d="M271.4,40.6c-2.6,3.9-6.1,7.2-10.1,9.6V43c8.3-4.8,11.1-15.4,6.4-23.7c-4.9-8.3-15.5-11.1-23.8-6.3
		s-11.1,15.4-6.4,23.7c1.5,2.6,3.7,4.8,6.4,6.4v7.2c-4.1-2.4-7.5-5.7-10.1-9.6l-14.4,9.6c6.8,10.2,17.1,17.5,29,20.4l2.2,0.5
		c1.4,0.3,2.8,0.3,4.2,0l2.2-0.5c11.9-3,22.2-10.2,29-20.4L271.4,40.6z"/>
	<path class="st5" d="M330.7,514h138.8V331.3c0-30.7-20.1-57.7-49.5-66.5l-37.3-11.2h-52.1V514H330.7z"/>
	<polygon class="st11" points="385.3,236.3 374.1,270.7 448,297.1 459.2,262.6 	"/>
	<path class="st12" d="M330.7,175.6c17.1,0,33.8,4.5,48.6,12.9l38.1,21.8L374,279.7l17.4,26l-60.7,130.2V175.6z"/>
	<path class="st10" d="M365.4,383.8v34.7l-16.5-6.6c-17.8-7.1-36.7-10.8-55.9-10.8h-23v34.7h5.4c25,0,49.6,5.8,72,17
		c11.9,6,25,9,38.3,9h14.5c19.2,0,34.7-15.5,34.7-34.7v-43.4L365.4,383.8L365.4,383.8z"/>
	<path class="st6" d="M322,444.6h69.4c9.6,0,17.4,7.8,17.4,17.4v34.7c0,9.6-7.8,17.4-17.4,17.4H322c-9.6,0-17.4-7.8-17.4-17.4V462
		C304.7,452.3,312.4,444.6,322,444.6z"/>
	<path class="st5" d="M174.5,514H35.7V331.3c0-30.7,20.1-57.7,49.5-66.5l37.3-11.2h52.1V514H174.5z"/>
	<rect x="96.4" y="375.2" class="st13" width="17.4" height="138.8"/>
	<polygon class="st11" points="120,236.3 131.1,270.7 57.2,297.1 46,262.6 	"/>
	<path class="st12" d="M174.5,175.6c-17.1,0-33.8,4.5-48.6,12.9l-38.1,21.8l43.4,69.4l-17.4,26l60.7,130.2L174.5,175.6L174.5,175.6z
		"/>
</g>
</svg>
