<?xml version="1.0" encoding="UTF-8"?>
<svg xmlns="http://www.w3.org/2000/svg" viewBox="0 0 512 512" width="512" height="512"><g id="Outline"><path d="M469.013,180.645l-13.421,8.71a151.133,151.133,0,0,1,20.119,46.766l-98.82,37.648a63.1,63.1,0,0,0-14.154-18.056l66.454-97.133q3.213,2.872,6.291,5.937A153.338,153.338,0,0,1,449.6,180.788l12.793-9.609A169.611,169.611,0,0,0,446.8,153.2,166.94,166.94,0,0,0,328,104H239.419A56.078,56.078,0,0,0,184,56a8,8,0,0,0-8,8v3.056L155.578,56.845A8,8,0,0,0,144,64v3.056L123.578,56.845A8,8,0,0,0,112,64v3.056L91.578,56.845A8,8,0,0,0,80,64v3.056L59.578,56.845A7.994,7.994,0,0,0,56,56H24a8,8,0,0,0-7.155,11.578L27.578,89.044A55.661,55.661,0,0,0,74.605,119.91l5.262,12.778a199.168,199.168,0,0,0,25.771,44.922l12.723-9.7a183.173,183.173,0,0,1-23.7-41.313L91.946,120h78.761a28,28,0,1,0,50.586,0H312v72a48.054,48.054,0,0,1-48,48,183.487,183.487,0,0,1-135.9-60.364l-11.87,10.728a199.549,199.549,0,0,0,137.785,65.378c.635.163,66.895.258,66.895.258a36.6,36.6,0,0,1-19.553,16.448l5.282,15.1a52.909,52.909,0,0,0,30.72-28.7,46.909,46.909,0,0,1,20,14.219A37.123,37.123,0,0,1,328,288v16a52.846,52.846,0,0,0,37.6-16.042A46.51,46.51,0,0,1,368,302.72a47.333,47.333,0,0,1-.365,5.864c-11.189,7.788-30.722,5.371-37.709,3.651L328,320l-1.94,7.761a88.817,88.817,0,0,0,19.781,2.218,70.343,70.343,0,0,0,14.347-1.409c-.517.776-1.05,1.544-1.617,2.294a46.339,46.339,0,0,1-24.459,16.783l-1.779.509a52.581,52.581,0,0,0-25.692-19.708l-5.282,15.1a35.791,35.791,0,0,1,14.353,9.354l-36.5,10.431a31.686,31.686,0,0,0-9.42,4.471l-69.883-81.535A40.879,40.879,0,0,0,128,312.88V321h16v-8.12a24.878,24.878,0,0,1,43.766-16.193l48.409,56.48-39.458-26.3A40.734,40.734,0,0,0,174.05,320h-5.17A40.927,40.927,0,0,0,128,360.88v38.24A40.927,40.927,0,0,0,168.88,440H328c92.636,0,168-75.364,168-168A167.4,167.4,0,0,0,469.013,180.645ZM208,132a12,12,0,1,1-12-12A12.013,12.013,0,0,1,208,132ZM77.666,104A39.784,39.784,0,0,1,41.888,81.888L36.944,72H54.111L84.422,87.155A8,8,0,0,0,96,80V76.944l20.422,10.211A8,8,0,0,0,128,80V76.944l20.422,10.211A8,8,0,0,0,160,80V76.944l20.422,10.211A8,8,0,0,0,192,80V72.8A40.124,40.124,0,0,1,223.2,104ZM328,192V120a150.891,150.891,0,0,1,88.685,28.523L349.5,246.732A62.316,62.316,0,0,0,321.28,240H306.264A63.848,63.848,0,0,0,328,192ZM144,399.12V360.88A24.908,24.908,0,0,1,168.88,336h5.17a24.785,24.785,0,0,1,13.792,4.176l65.221,43.478L189.67,424H168.88A24.908,24.908,0,0,1,144,399.12Zm112,1.63V424H219.47ZM272,424V394.1a16.054,16.054,0,0,1,11.608-15.377l51.75-14.791,22.821,57.054A152.144,152.144,0,0,1,328,424Zm101.794-7.055-23.447-58.622a62.181,62.181,0,0,0,21-17.823c.649-.859,1.265-1.736,1.866-2.621l70.13,33A152.42,152.42,0,0,1,373.794,416.945ZM453.329,357.9l-72.89-34.3a62.694,62.694,0,0,0,1.981-34.815l96.263-36.677A153.252,153.252,0,0,1,480,272,151.129,151.129,0,0,1,453.329,357.9Z"/><path d="M335.505,391.769c-2.48.153-5,.231-7.5.231H296.482v16H328c2.829,0,5.687-.088,8.5-.263Z"/><path d="M380.488,379.9l7.024,14.377a136.588,136.588,0,0,0,25.5-16.186l-10.016-12.477A120.481,120.481,0,0,1,380.488,379.9Z"/><path d="M447.768,279.505A118.672,118.672,0,0,1,435.9,324.488l14.376,7.024A134.6,134.6,0,0,0,463.738,280.5Z"/><path d="M421.612,197.009A119.472,119.472,0,0,1,442,234.506l15.195-5.012a135.43,135.43,0,0,0-23.109-42.5Z"/><path d="M396.013,154.258A134.889,134.889,0,0,0,353.5,138.4L350.5,154.114A118.936,118.936,0,0,1,387.987,168.1Z"/><rect x="248" y="136" width="48" height="16"/></g></svg>
